<?xml version="1.0" standalone="no"?><!DOCTYPE svg PUBLIC "-//W3C//DTD SVG 1.1//EN" "http://www.w3.org/Graphics/SVG/1.1/DTD/svg11.dtd"><svg t="1732024015190" class="icon" viewBox="0 0 1024 1024" version="1.1" xmlns="http://www.w3.org/2000/svg" p-id="4668" xmlns:xlink="http://www.w3.org/1999/xlink" width="32" height="32"><path d="M1012.298 561.529s-36.98 12.388-51.702 94.39-83.203 202.114-287.236 119.673c0 0-67.464-76.708-3.074-177.107C725.778 512 801.331 493.28 1012.298 561.53z" fill="#40BF73" p-id="4669"></path><path d="M717.134 1024H576.937c25.84-314.323-205.258-669.762-205.258-669.762S699.846 572.646 717.134 1024z" fill="#4CD392" p-id="4670"></path><path d="M187.176 146.137c90.322 3.213 171.029 14.006 240.365 32.149 66.701 17.473 122.655 41.74 166.406 72.086 35.963 25.007 63.628 54.337 82.279 87.202a244.41 244.41 0 0 1-33.49 283.052 254.717 254.717 0 0 1-186.513 81.285c-8.09 0-16.317-0.393-24.43-1.155a279.655 279.655 0 0 1-60.992-12.85c-99.382-32.773-163.471-85.815-195.597-162.224-34.229-81.377-26.856-173.987-14.653-237.337 11.048-57.271 19.784-104.35 26.625-142.208M71.386 0S60.152 76.57 24.351 262.113c-39.082 202.854-0.67 457.618 303.045 557.508a417.079 417.079 0 0 0 91.408 19.206q18.836 1.756 37.372 1.756c220.58 0 405.823-183.763 387.958-413.265C826.87 205.835 634.324 13.613 155.143 6.679A2919.465 2919.465 0 0 0 71.339 0.046z" fill="#4CD392" p-id="4671"></path><path d="M617.175 644.617a254.833 254.833 0 0 1-88.126 46.617A1122.064 1122.064 0 0 1 563.97 825.56a393.297 393.297 0 0 0 108.811-49.921 870.097 870.097 0 0 0-55.607-131.022z" fill="#40BF73" p-id="4672"></path></svg>