<?xml version="1.0" standalone="no"?><!DOCTYPE svg PUBLIC "-//W3C//DTD SVG 1.1//EN" "http://www.w3.org/Graphics/SVG/1.1/DTD/svg11.dtd"><svg t="1732024625031" class="icon" viewBox="0 0 1024 1024" version="1.1" xmlns="http://www.w3.org/2000/svg" p-id="13604" width="32" height="32" xmlns:xlink="http://www.w3.org/1999/xlink"><path d="M942.72 503.81a23 23 0 0 0-39.95 23c15.85 27.52 24.08 57.1 24.08 87.54 0 53.46-25.53 104.32-71.76 144.81a23.05 23.05 0 0 0-7.86 17.34v127.65l-137-70.43a23 23 0 0 0-14.38-2.23 386 386 0 0 1-64.42 5.51c-76.75 0-148.63-22.31-203.1-61.48a23 23 0 1 0-26.91 37.42c62.46 44.91 143.77 70.15 230 70.15a429.9 429.9 0 0 0 64.48-4.92l163.84 84.26a23 23 0 0 0 33.59-20.49V786.67c50.86-47.79 79.62-108.11 79.62-172.33 0-38.67-10.43-76.14-30.23-110.53z" fill="#8a8a8a" p-id="13605"></path><path d="M472.19 760.24c231.71 0 421.14-155.88 421.14-350.62S703.9 59 472.19 59 51.05 214.89 51.05 409.62c0 74.56 28.31 145.46 79.62 204.67v204.79a23 23 0 0 0 33.59 20.5l184.52-94.88a498.31 498.31 0 0 0 123.41 15.54z m-295.43 21.08V605.55a23.07 23.07 0 0 0-6-15.52c-47.63-52.32-73.61-114.89-73.61-180.41 0-167.08 167-304.53 375-304.53s375 137.45 375 304.53-167 304.52-375 304.52a452.42 452.42 0 0 1-120-16.21 23.06 23.06 0 0 0-16.64 1.72z" fill="#8a8a8a" p-id="13606"></path></svg>